<svg width="76" height="76" viewBox="0 0 76 76" fill="none" xmlns="http://www.w3.org/2000/svg">
<circle cx="41.5" cy="12.5" r="7.5" stroke="#242933" stroke-width="4" stroke-linejoin="round"/>
<path fill-rule="evenodd" clip-rule="evenodd" d="M20.3556 47.0869L7.99436 62.3567C5.38909 65.575 6.70236 70.3999 10.5793 71.8537C13.0048 72.7633 15.7403 72.0323 17.3888 70.0342L31.1971 53.2968L26.9412 52.1699L14.3033 67.4886C13.7418 68.1693 12.81 68.4182 11.9838 68.1084C10.6633 67.6132 10.2159 65.9697 11.1033 64.8735L22.4433 50.8654C21.0397 50.1113 20.2616 48.6015 20.3556 47.0869Z" fill="#242933"/>
<path d="M56 34.4C56 32.1598 56 31.0397 56.436 30.184C56.8195 29.4314 57.4314 28.8195 58.184 28.436C59.0397 28 60.1598 28 62.4 28H67.6C69.8402 28 70.9603 28 71.816 28.436C72.5686 28.8195 73.1805 29.4314 73.564 30.184C74 31.0397 74 32.1598 74 34.4V36.6C74 38.8402 74 39.9603 73.564 40.816C73.1805 41.5686 72.5686 42.1805 71.816 42.564C70.9603 43 69.8402 43 67.6 43H62.4C60.1598 43 59.0397 43 58.184 42.564C57.4314 42.1805 56.8195 41.5686 56.436 40.816C56 39.9603 56 38.8402 56 36.6V34.4Z" stroke="#242933" stroke-width="4"/>
<path fill-rule="evenodd" clip-rule="evenodd" d="M12.7529 22.323C13.2814 21.6386 14.1524 21.3134 15.0002 21.4837L45.8133 27.6757C47.2005 27.9544 47.8675 29.5461 47.0935 30.7305L46.6404 31.4239C45.7249 32.8249 46.4883 34.7092 48.1208 35.0778L56 36.857C56 36.773 56 36.6873 56 36.6V34.4C56 33.7708 56 33.2299 56.0097 32.7584L51.0775 31.6447C52.2722 28.3135 50.2816 24.4936 46.6013 23.7541L15.7882 17.5621C13.449 17.0921 11.0456 17.9896 9.58719 19.8779C6.75658 23.5428 8.73597 28.9062 13.2688 29.8536L28.2115 32.9767L19.6757 43.5846C16.9528 46.9684 18.6158 52.0344 22.8144 53.1462L35.5058 56.5068L31.2672 63.0812C29.1392 66.3818 30.8626 70.7976 34.6638 71.7841C36.9794 72.3851 39.4255 71.4933 40.811 69.543L50.2948 56.1933C52.9525 52.4522 51.0014 47.2095 46.5446 46.1161L41.3912 44.8518L44.2249 41.688L57.21 44.3225C58.9669 44.6789 60.7403 44.155 62.0113 42.9999C60.0273 42.9985 58.9887 42.974 58.184 42.564C57.4314 42.1805 56.8195 41.5686 56.436 40.816C56.3156 40.5798 56.2285 40.3235 56.1654 40.029L44.4587 37.6539C43.4153 37.4422 42.3379 37.7994 41.6275 38.5925L36.6327 44.1692C35.424 45.5187 36.0892 47.6696 37.8487 48.1013L45.5915 50.0009C47.3057 50.4215 48.0561 52.4379 47.0339 53.8768L37.5501 67.2264C37.1261 67.8234 36.3774 68.0963 35.6687 67.9124C34.5052 67.6104 33.9778 66.2589 34.6291 65.2487L39.7042 57.3769C40.7634 55.7339 39.9116 53.5356 38.022 53.0352L23.8383 49.2794C22.4388 48.9089 21.8844 47.2202 22.792 46.0922L32.3512 34.2126C33.7558 32.467 32.8208 29.8537 30.6277 29.3953L14.0871 25.9382C12.4444 25.5949 11.7271 23.6511 12.7529 22.323Z" fill="#242933"/>
</svg>
