<svg width="76" height="76" viewBox="0 0 76 76" fill="none" xmlns="http://www.w3.org/2000/svg">
<path fill-rule="evenodd" clip-rule="evenodd" d="M12 7C8.68629 7 6 9.68629 6 13V63C6 66.3137 8.68629 69 12 69H32C32.5523 69 33 68.5523 33 68V66C33 65.4477 32.5523 65 32 65H12C10.8954 65 10 64.1046 10 63V13C10 11.8954 10.8954 11 12 11H52C53.1046 11 54 11.8954 54 13V30C54 30.5523 54.4477 31 55 31H57C57.5523 31 58 30.5523 58 30V13C58 9.68629 55.3137 7 52 7H12ZM23 20C23 22.2091 21.2091 24 19 24C16.7909 24 15 22.2091 15 20C15 17.7909 16.7909 16 19 16C21.2091 16 23 17.7909 23 20ZM55.1523 44.0087C55.5428 44.3992 56.176 44.3992 56.5665 44.0087L62.4 38.1752C62.8257 37.7495 62.7596 37.1232 62.4012 36.7593C62.3414 36.6867 62.2641 36.6254 62.1701 36.5816C59.9914 35.5667 57.5619 35 55 35H47C37.6112 35 30 42.6112 30 52C30 56.6082 31.8336 60.7882 34.811 63.8502C35.1846 64.2344 35.7973 64.2195 36.1763 63.8406L37.5829 62.4339C37.9887 62.0281 37.9675 61.367 37.5723 60.9509C35.3584 58.6199 34 55.4686 34 52C34 44.8203 39.8203 39 47 39H55C55.2986 39 55.5949 39.0101 55.8885 39.0299L53.7381 41.1803C53.3475 41.5708 53.3475 42.204 53.7381 42.5945L55.1523 44.0087ZM39.2783 67.1347C38.745 66.8329 38.5616 66.056 39.0641 65.5534L45.3243 59.2933C45.7148 58.9028 46.348 58.9028 46.7385 59.2933L48.1527 60.7075C48.5432 61.098 48.5432 61.7312 48.1527 62.1217L45.375 64.8994C45.9073 64.9658 46.4497 65 47 65H55C62.1797 65 68 59.1797 68 52C68 48.459 66.5843 45.2487 64.288 42.9042C63.8817 42.4894 63.8547 41.819 64.2652 41.4085L65.6701 40.0036C66.0456 39.6281 66.6514 39.6094 67.0267 39.9851C70.0996 43.061 72 47.3086 72 52C72 61.3888 64.3888 69 55 69H47C44.2578 69 41.6672 68.3507 39.3736 67.1975C39.3384 67.1798 39.3066 67.1587 39.2783 67.1347Z" fill="#242933"/>
</svg>
