<!-- Generated by IcoMoon.io -->
<svg version="1.1" xmlns="http://www.w3.org/2000/svg" viewBox="0 0 1463 1024">
<path fill="none" stroke-linejoin="miter" stroke-linecap="butt" stroke-miterlimit="4" stroke-width="73.1429" stroke="#242933" d="M950.857 36.571h-438.857c-131.286 0-250.143 53.214-336.179 139.25s-139.25 204.893-139.25 336.179c0 131.286 53.214 250.143 139.25 336.179s204.893 139.25 336.179 139.25h438.857c131.286 0 250.143-53.214 336.179-139.25s139.25-204.893 139.25-336.179c0-131.286-53.214-250.143-139.25-336.179s-204.893-139.25-336.179-139.25z"></path>
<path fill="#242933" d="M646.349 329.143h70.421c9.331 0 18.223 3.96 24.465 10.896l143.756 159.729c6.259 6.954 6.259 17.511 0 24.465l-143.756 159.729c-6.242 6.935-15.134 10.896-24.465 10.896h-70.421c-6.059 0-10.971-4.912-10.971-10.971 0-2.71 1.003-5.325 2.816-7.339l141.486-157.207c3.755-4.172 3.755-10.507 0-14.679l-141.486-157.207c-4.053-4.504-3.688-11.441 0.815-15.494 2.015-1.813 4.629-2.816 7.339-2.816z"></path>
</svg>