<?xml version="1.0" encoding="UTF-8"?>
<svg width="44px" height="44px" viewBox="0 0 44 44" version="1.1" xmlns="http://www.w3.org/2000/svg" xmlns:xlink="http://www.w3.org/1999/xlink">
    <title>免费刷机</title>
    <defs>
        <rect id="path-1" x="0" y="0" width="44" height="44"></rect>
    </defs>
    <g id="pc" stroke="none" stroke-width="1" fill="none" fill-rule="evenodd">
        <g id="PC服务1920" transform="translate(-1231.000000, -1480.000000)">
            <g id="免费刷机" transform="translate(1231.000000, 1480.000000)">
                <mask id="mask-2" fill="white">
                    <use xlink:href="#path-1"></use>
                </mask>
                <g id="矩形"></g>
                <path d="M10.4760001,17.7179153 C10.5257548,17.767705 10.5669265,17.8089057 10.5995151,17.8415172 C10.8547015,18.0968833 11.0581658,18.3004908 11.2099081,18.4523399 C11.2590088,18.5014751 11.3201236,18.562633 11.3932526,18.6358134 C11.5508139,18.7935641 11.5849326,19.0365737 11.4768547,19.2315866 C11.4109422,19.3505176 11.3579608,19.4489893 11.3179105,19.5270016 C10.4754364,21.1680246 10,23.0284902 10,25 C10,31.627417 15.372583,37 22,37 C22.5947682,37 23.1794301,36.9567297 23.7510094,36.8731653 L23.7502073,32.206239 C23.7501598,31.9300966 23.973979,31.7062006 24.2501214,31.7061531 C24.3826415,31.7061303 24.5097504,31.7587171 24.60352,31.8523592 C26.0683354,33.3151824 27.5331509,34.7780056 28.9979663,36.2408288 C29.0280909,36.2709125 29.0619157,36.3046913 29.0994407,36.3421652 C29.2948775,36.5372823 29.295093,36.8538889 29.0999489,37.0492988 C29.0696456,37.0796433 29.0355647,37.1059635 28.9985452,37.1276114 C28.9720186,37.1431234 28.9472664,37.1574299 28.9242886,37.170531 C26.8822762,38.3348161 24.5188191,39 22,39 C14.2680135,39 8,32.7319865 8,25 C8,22.43364 8.69053054,20.0285621 9.89592627,17.9604316 C9.92579992,17.9091766 9.96303445,17.8469739 10.0076298,17.7738236 C10.0938658,17.6323385 10.2784745,17.5875684 10.419951,17.6738183 C10.4403208,17.6862365 10.4591367,17.7010401 10.4760001,17.7179153 Z M22,11 C29.7319865,11 36,17.2680135 36,25 C36,27.5129116 35.3379326,29.8711892 34.1787147,31.9099157 C34.1317359,31.9925377 34.0695249,32.0975533 33.9920817,32.2249625 C33.9060594,32.366608 33.721481,32.4116288 33.5798685,32.3255524 C33.5593772,32.3130971 33.5404528,32.2982305 33.5235003,32.2812705 C33.4496203,32.2073581 33.3905728,32.1482848 33.346358,32.1040505 C33.1249726,31.882568 32.9461394,31.7036564 32.8098585,31.5673156 C32.756115,31.5135486 32.6885817,31.4459856 32.6072585,31.3646268 C32.4494754,31.2068053 32.4154016,30.963528 32.5237353,30.7684205 C32.5738782,30.6781138 32.6149936,30.6021929 32.6470816,30.5406578 C33.5113812,28.8831869 34,26.998655 34,25 C34,18.372583 28.627417,13 22,13 C21.318293,13 20.6498628,13.0568447 19.9991908,13.1660527 L19.9998252,17.5439793 C19.9998652,17.8201216 19.7760401,18.0440117 19.4998977,18.0440517 C19.3673873,18.0440709 19.2402884,17.9914885 19.1465229,17.897856 L15.1396595,13.8966781 L15.1396595,13.8966781 L14.9007308,13.6580884 C14.7054212,13.4629385 14.7051965,13.1464087 14.9002875,12.9510405 C14.9306118,12.9206732 14.96472,12.894337 15.001771,12.8726815 C15.0627636,12.8370327 15.1168973,12.8059578 15.1641719,12.779457 C17.185859,11.6461547 19.5174707,11 22,11 Z" id="形状" fill="#575C66" mask="url(#mask-2)"></path>
                <rect id="矩形" mask="url(#mask-2)" x="0" y="0" width="44" height="44"></rect>
            </g>
        </g>
    </g>
</svg>