<?xml version="1.0" encoding="UTF-8"?>
<svg width="44px" height="44px" viewBox="0 0 44 44" version="1.1" xmlns="http://www.w3.org/2000/svg" xmlns:xlink="http://www.w3.org/1999/xlink">
    <title>高速wifi</title>
    <defs>
        <rect id="path-1" x="0" y="0" width="44" height="44"></rect>
    </defs>
    <g id="pc" stroke="none" stroke-width="1" fill="none" fill-rule="evenodd">
        <g id="PC服务1920" transform="translate(-1416.000000, -1480.000000)">
            <g id="高速wifi" transform="translate(1416.000000, 1480.000000)">
                <mask id="mask-2" fill="white">
                    <use xlink:href="#path-1"></use>
                </mask>
                <g id="矩形备份-22"></g>
                <path d="M32,29 C33.1045695,29 34,29.8954305 34,31 C34,32.1045695 33.1045695,33 32,33 C30.8954305,33 30,32.1045695 30,31 C30,29.8954305 30.8954305,29 32,29 Z M32,22 C32.5522847,22 33,22.4477153 33,23 C33,23.5522847 32.5522847,24 32,24 L32,24 L32,24 C28.1380171,24 25.0065029,27.127508 25.0000101,30.9879713 L25,31 C25,31.5522847 24.5522847,32 24,32 C23.4477153,32 23,31.5522847 23,31 L23,31 L23,31 C23,26.0294373 27.0294373,22 32,22 Z M32,15 C32.5522847,15 33,15.4477153 33,16 C33,16.5522847 32.5522847,17 32,17 L32,17 L32,17 C24.3764515,17 18.1761007,23.0986853 18.0036853,30.6873496 L18,31 C18,31.5522847 17.5522847,32 17,32 C16.4477153,32 16,31.5522847 16,31 L16,31 L16,31 C16,22.163444 23.1572753,15 31.9862219,15 Z M31.9801939,8 L32,8 C32.5522847,8 33,8.44771525 33,9 C33,9.55228475 32.5522847,10 32,10 L32,10 L32,10 C20.4070267,10 11.0081175,19.3939049 11.0000053,30.9849818 L11,31 C11,31.5522847 10.5522847,32 10,32 C9.44771525,32 9,31.5522847 9,31 L9,31 C9,18.2974508 19.2885833,8 31.9801939,8 Z" id="形状结合" fill="#575C66" mask="url(#mask-2)" transform="translate(21.500000, 20.500000) rotate(45.000000) translate(-21.500000, -20.500000) "></path>
                <rect id="矩形备份-22" mask="url(#mask-2)" x="0" y="0" width="44" height="44"></rect>
            </g>
        </g>
    </g>
</svg>